<svg xmlns="http://www.w3.org/2000/svg" viewBox="0 0 1600 1000"><defs><linearGradient id="sky" x2="0" y2="1"><stop stop-color="#171d17"/><stop offset="1" stop-color="#82713c"/></linearGradient></defs><path fill="url(#sky)" d="M0 0h1600v1000H0z"/><circle cx="1240" cy="250" r="125" fill="#c8a44b" opacity=".55"/><path fill="#3b4930" d="M0 530Q230 370 480 500T970 450T1600 460V1000H0z"/><path fill="#727343" d="M0 680Q430 560 810 610T1600 600V1000H0z"/><path fill="#bab27b" d="M920 560Q630 670 1100 760T790 1000H1050Q1370 870 1080 760T1040 580z"/><path stroke="#222d22" stroke-width="9" d="M600 678v-168"/><ellipse cx="600" cy="510" rx="63.84" ry="38.64" fill="#253a29"/><path stroke="#222d22" stroke-width="9" d="M675 655v-124"/><ellipse cx="675" cy="531" rx="47.12" ry="28.52" fill="#253a29"/><path stroke="#222d22" stroke-width="9" d="M750 595v-113"/><ellipse cx="750" cy="482" rx="42.94" ry="25.990000000000002" fill="#253a29"/><path stroke="#222d22" stroke-width="9" d="M825 561v-133"/><ellipse cx="825" cy="428" rx="50.54" ry="30.59" fill="#253a29"/><path stroke="#222d22" stroke-width="9" d="M900 688v-149"/><ellipse cx="900" cy="539" rx="56.62" ry="34.27" fill="#253a29"/><path stroke="#222d22" stroke-width="9" d="M975 714v-100"/><ellipse cx="975" cy="614" rx="38.0" ry="23.0" fill="#253a29"/><path stroke="#222d22" stroke-width="9" d="M1050 645v-160"/><ellipse cx="1050" cy="485" rx="60.8" ry="36.800000000000004" fill="#253a29"/><path stroke="#222d22" stroke-width="9" d="M1125 717v-179"/><ellipse cx="1125" cy="538" rx="68.02" ry="41.17" fill="#253a29"/><path stroke="#222d22" stroke-width="9" d="M1200 570v-138"/><ellipse cx="1200" cy="432" rx="52.44" ry="31.740000000000002" fill="#253a29"/><path stroke="#222d22" stroke-width="9" d="M1275 603v-180"/><ellipse cx="1275" cy="423" rx="68.4" ry="41.4" fill="#253a29"/><path stroke="#222d22" stroke-width="9" d="M1350 675v-144"/><ellipse cx="1350" cy="531" rx="54.72" ry="33.120000000000005" fill="#253a29"/><path stroke="#222d22" stroke-width="9" d="M1425 600v-111"/><ellipse cx="1425" cy="489" rx="42.18" ry="25.53" fill="#253a29"/><path stroke="#222d22" stroke-width="9" d="M1500 620v-96"/><ellipse cx="1500" cy="524" rx="36.480000000000004" ry="22.080000000000002" fill="#253a29"/><path stroke="#222d22" stroke-width="9" d="M1575 588v-106"/><ellipse cx="1575" cy="482" rx="40.28" ry="24.380000000000003" fill="#253a29"/><path d="M0 1000q-10 -105 5 -135m-5 135q15 -52 25 -105" fill="none" stroke="#202a1b" stroke-width="3" opacity=".8"/><path d="M12 1000q-10 -79 5 -109m-5 109q15 -39 25 -79" fill="none" stroke="#202a1b" stroke-width="3" opacity=".8"/><path d="M24 1000q-10 -67 5 -97m-5 97q15 -33 25 -67" fill="none" stroke="#202a1b" stroke-width="3" opacity=".8"/><path d="M36 1000q-10 -58 5 -88m-5 88q15 -29 25 -58" fill="none" stroke="#202a1b" stroke-width="3" opacity=".8"/><path d="M48 1000q-10 -83 5 -113m-5 113q15 -41 25 -83" fill="none" stroke="#202a1b" stroke-width="3" opacity=".8"/><path d="M60 1000q-10 -64 5 -94m-5 94q15 -32 25 -64" fill="none" stroke="#202a1b" stroke-width="3" opacity=".8"/><path d="M72 1000q-10 -80 5 -110m-5 110q15 -40 25 -80" fill="none" stroke="#202a1b" stroke-width="3" opacity=".8"/><path d="M84 1000q-10 -73 5 -103m-5 103q15 -36 25 -73" fill="none" stroke="#202a1b" stroke-width="3" opacity=".8"/><path d="M96 1000q-10 -55 5 -85m-5 85q15 -27 25 -55" fill="none" stroke="#202a1b" stroke-width="3" opacity=".8"/><path d="M108 1000q-10 -30 5 -60m-5 60q15 -15 25 -30" fill="none" stroke="#202a1b" stroke-width="3" opacity=".8"/><path d="M120 1000q-10 -37 5 -67m-5 67q15 -18 25 -37" fill="none" stroke="#202a1b" stroke-width="3" opacity=".8"/><path d="M132 1000q-10 -92 5 -122m-5 122q15 -46 25 -92" fill="none" stroke="#202a1b" stroke-width="3" opacity=".8"/><path d="M144 1000q-10 -33 5 -63m-5 63q15 -16 25 -33" fill="none" stroke="#202a1b" stroke-width="3" opacity=".8"/><path d="M156 1000q-10 -84 5 -114m-5 114q15 -42 25 -84" fill="none" stroke="#202a1b" stroke-width="3" opacity=".8"/><path d="M168 1000q-10 -44 5 -74m-5 74q15 -22 25 -44" fill="none" stroke="#202a1b" stroke-width="3" opacity=".8"/><path d="M180 1000q-10 -30 5 -60m-5 60q15 -15 25 -30" fill="none" stroke="#202a1b" stroke-width="3" opacity=".8"/><path d="M192 1000q-10 -104 5 -134m-5 134q15 -52 25 -104" fill="none" stroke="#202a1b" stroke-width="3" opacity=".8"/><path d="M204 1000q-10 -55 5 -85m-5 85q15 -27 25 -55" fill="none" stroke="#202a1b" stroke-width="3" opacity=".8"/><path d="M216 1000q-10 -31 5 -61m-5 61q15 -15 25 -31" fill="none" stroke="#202a1b" stroke-width="3" opacity=".8"/><path d="M228 1000q-10 -47 5 -77m-5 77q15 -23 25 -47" fill="none" stroke="#202a1b" stroke-width="3" opacity=".8"/><path d="M240 1000q-10 -32 5 -62m-5 62q15 -16 25 -32" fill="none" stroke="#202a1b" stroke-width="3" opacity=".8"/><path d="M252 1000q-10 -40 5 -70m-5 70q15 -20 25 -40" fill="none" stroke="#202a1b" stroke-width="3" opacity=".8"/><path d="M264 1000q-10 -93 5 -123m-5 123q15 -46 25 -93" fill="none" stroke="#202a1b" stroke-width="3" opacity=".8"/><path d="M276 1000q-10 -55 5 -85m-5 85q15 -27 25 -55" fill="none" stroke="#202a1b" stroke-width="3" opacity=".8"/><path d="M288 1000q-10 -38 5 -68m-5 68q15 -19 25 -38" fill="none" stroke="#202a1b" stroke-width="3" opacity=".8"/><path d="M300 1000q-10 -54 5 -84m-5 84q15 -27 25 -54" fill="none" stroke="#202a1b" stroke-width="3" opacity=".8"/><path d="M312 1000q-10 -41 5 -71m-5 71q15 -20 25 -41" fill="none" stroke="#202a1b" stroke-width="3" opacity=".8"/><path d="M324 1000q-10 -104 5 -134m-5 134q15 -52 25 -104" fill="none" stroke="#202a1b" stroke-width="3" opacity=".8"/><path d="M336 1000q-10 -52 5 -82m-5 82q15 -26 25 -52" fill="none" stroke="#202a1b" stroke-width="3" opacity=".8"/><path d="M348 1000q-10 -35 5 -65m-5 65q15 -17 25 -35" fill="none" stroke="#202a1b" stroke-width="3" opacity=".8"/><path d="M360 1000q-10 -64 5 -94m-5 94q15 -32 25 -64" fill="none" stroke="#202a1b" stroke-width="3" opacity=".8"/><path d="M372 1000q-10 -107 5 -137m-5 137q15 -53 25 -107" fill="none" stroke="#202a1b" stroke-width="3" opacity=".8"/><path d="M384 1000q-10 -64 5 -94m-5 94q15 -32 25 -64" fill="none" stroke="#202a1b" stroke-width="3" opacity=".8"/><path d="M396 1000q-10 -103 5 -133m-5 133q15 -51 25 -103" fill="none" stroke="#202a1b" stroke-width="3" opacity=".8"/><path d="M408 1000q-10 -45 5 -75m-5 75q15 -22 25 -45" fill="none" stroke="#202a1b" stroke-width="3" opacity=".8"/><path d="M420 1000q-10 -81 5 -111m-5 111q15 -40 25 -81" fill="none" stroke="#202a1b" stroke-width="3" opacity=".8"/><path d="M432 1000q-10 -50 5 -80m-5 80q15 -25 25 -50" fill="none" stroke="#202a1b" stroke-width="3" opacity=".8"/><path d="M444 1000q-10 -94 5 -124m-5 124q15 -47 25 -94" fill="none" stroke="#202a1b" stroke-width="3" opacity=".8"/><path d="M456 1000q-10 -76 5 -106m-5 106q15 -38 25 -76" fill="none" stroke="#202a1b" stroke-width="3" opacity=".8"/><path d="M468 1000q-10 -96 5 -126m-5 126q15 -48 25 -96" fill="none" stroke="#202a1b" stroke-width="3" opacity=".8"/><path d="M480 1000q-10 -102 5 -132m-5 132q15 -51 25 -102" fill="none" stroke="#202a1b" stroke-width="3" opacity=".8"/><path d="M492 1000q-10 -41 5 -71m-5 71q15 -20 25 -41" fill="none" stroke="#202a1b" stroke-width="3" opacity=".8"/><path d="M504 1000q-10 -44 5 -74m-5 74q15 -22 25 -44" fill="none" stroke="#202a1b" stroke-width="3" opacity=".8"/><path d="M516 1000q-10 -76 5 -106m-5 106q15 -38 25 -76" fill="none" stroke="#202a1b" stroke-width="3" opacity=".8"/><path d="M528 1000q-10 -56 5 -86m-5 86q15 -28 25 -56" fill="none" stroke="#202a1b" stroke-width="3" opacity=".8"/><path d="M540 1000q-10 -55 5 -85m-5 85q15 -27 25 -55" fill="none" stroke="#202a1b" stroke-width="3" opacity=".8"/><path d="M552 1000q-10 -32 5 -62m-5 62q15 -16 25 -32" fill="none" stroke="#202a1b" stroke-width="3" opacity=".8"/><path d="M564 1000q-10 -107 5 -137m-5 137q15 -53 25 -107" fill="none" stroke="#202a1b" stroke-width="3" opacity=".8"/><path d="M576 1000q-10 -30 5 -60m-5 60q15 -15 25 -30" fill="none" stroke="#202a1b" stroke-width="3" opacity=".8"/><path d="M588 1000q-10 -44 5 -74m-5 74q15 -22 25 -44" fill="none" stroke="#202a1b" stroke-width="3" opacity=".8"/><path d="M600 1000q-10 -58 5 -88m-5 88q15 -29 25 -58" fill="none" stroke="#202a1b" stroke-width="3" opacity=".8"/><path d="M612 1000q-10 -64 5 -94m-5 94q15 -32 25 -64" fill="none" stroke="#202a1b" stroke-width="3" opacity=".8"/><path d="M624 1000q-10 -41 5 -71m-5 71q15 -20 25 -41" fill="none" stroke="#202a1b" stroke-width="3" opacity=".8"/><path d="M636 1000q-10 -110 5 -140m-5 140q15 -55 25 -110" fill="none" stroke="#202a1b" stroke-width="3" opacity=".8"/><path d="M648 1000q-10 -43 5 -73m-5 73q15 -21 25 -43" fill="none" stroke="#202a1b" stroke-width="3" opacity=".8"/><path d="M660 1000q-10 -37 5 -67m-5 67q15 -18 25 -37" fill="none" stroke="#202a1b" stroke-width="3" opacity=".8"/><path d="M672 1000q-10 -78 5 -108m-5 108q15 -39 25 -78" fill="none" stroke="#202a1b" stroke-width="3" opacity=".8"/><path d="M684 1000q-10 -84 5 -114m-5 114q15 -42 25 -84" fill="none" stroke="#202a1b" stroke-width="3" opacity=".8"/><path d="M696 1000q-10 -74 5 -104m-5 104q15 -37 25 -74" fill="none" stroke="#202a1b" stroke-width="3" opacity=".8"/><path d="M708 1000q-10 -61 5 -91m-5 91q15 -30 25 -61" fill="none" stroke="#202a1b" stroke-width="3" opacity=".8"/><path d="M720 1000q-10 -38 5 -68m-5 68q15 -19 25 -38" fill="none" stroke="#202a1b" stroke-width="3" opacity=".8"/><path d="M732 1000q-10 -112 5 -142m-5 142q15 -56 25 -112" fill="none" stroke="#202a1b" stroke-width="3" opacity=".8"/><path d="M744 1000q-10 -42 5 -72m-5 72q15 -21 25 -42" fill="none" stroke="#202a1b" stroke-width="3" opacity=".8"/><path d="M756 1000q-10 -95 5 -125m-5 125q15 -47 25 -95" fill="none" stroke="#202a1b" stroke-width="3" opacity=".8"/><path d="M768 1000q-10 -101 5 -131m-5 131q15 -50 25 -101" fill="none" stroke="#202a1b" stroke-width="3" opacity=".8"/><path d="M780 1000q-10 -47 5 -77m-5 77q15 -23 25 -47" fill="none" stroke="#202a1b" stroke-width="3" opacity=".8"/><path d="M792 1000q-10 -67 5 -97m-5 97q15 -33 25 -67" fill="none" stroke="#202a1b" stroke-width="3" opacity=".8"/><path d="M804 1000q-10 -63 5 -93m-5 93q15 -31 25 -63" fill="none" stroke="#202a1b" stroke-width="3" opacity=".8"/><path d="M816 1000q-10 -36 5 -66m-5 66q15 -18 25 -36" fill="none" stroke="#202a1b" stroke-width="3" opacity=".8"/><path d="M828 1000q-10 -63 5 -93m-5 93q15 -31 25 -63" fill="none" stroke="#202a1b" stroke-width="3" opacity=".8"/><path d="M840 1000q-10 -45 5 -75m-5 75q15 -22 25 -45" fill="none" stroke="#202a1b" stroke-width="3" opacity=".8"/><path d="M852 1000q-10 -48 5 -78m-5 78q15 -24 25 -48" fill="none" stroke="#202a1b" stroke-width="3" opacity=".8"/><path d="M864 1000q-10 -36 5 -66m-5 66q15 -18 25 -36" fill="none" stroke="#202a1b" stroke-width="3" opacity=".8"/><path d="M876 1000q-10 -87 5 -117m-5 117q15 -43 25 -87" fill="none" stroke="#202a1b" stroke-width="3" opacity=".8"/><path d="M888 1000q-10 -79 5 -109m-5 109q15 -39 25 -79" fill="none" stroke="#202a1b" stroke-width="3" opacity=".8"/><path d="M900 1000q-10 -108 5 -138m-5 138q15 -54 25 -108" fill="none" stroke="#202a1b" stroke-width="3" opacity=".8"/><path d="M912 1000q-10 -75 5 -105m-5 105q15 -37 25 -75" fill="none" stroke="#202a1b" stroke-width="3" opacity=".8"/><path d="M924 1000q-10 -48 5 -78m-5 78q15 -24 25 -48" fill="none" stroke="#202a1b" stroke-width="3" opacity=".8"/><path d="M936 1000q-10 -101 5 -131m-5 131q15 -50 25 -101" fill="none" stroke="#202a1b" stroke-width="3" opacity=".8"/><path d="M948 1000q-10 -47 5 -77m-5 77q15 -23 25 -47" fill="none" stroke="#202a1b" stroke-width="3" opacity=".8"/><path d="M960 1000q-10 -101 5 -131m-5 131q15 -50 25 -101" fill="none" stroke="#202a1b" stroke-width="3" opacity=".8"/><path d="M972 1000q-10 -45 5 -75m-5 75q15 -22 25 -45" fill="none" stroke="#202a1b" stroke-width="3" opacity=".8"/><path d="M984 1000q-10 -83 5 -113m-5 113q15 -41 25 -83" fill="none" stroke="#202a1b" stroke-width="3" opacity=".8"/><path d="M996 1000q-10 -48 5 -78m-5 78q15 -24 25 -48" fill="none" stroke="#202a1b" stroke-width="3" opacity=".8"/><path d="M1008 1000q-10 -101 5 -131m-5 131q15 -50 25 -101" fill="none" stroke="#202a1b" stroke-width="3" opacity=".8"/><path d="M1020 1000q-10 -105 5 -135m-5 135q15 -52 25 -105" fill="none" stroke="#202a1b" stroke-width="3" opacity=".8"/><path d="M1032 1000q-10 -114 5 -144m-5 144q15 -57 25 -114" fill="none" stroke="#202a1b" stroke-width="3" opacity=".8"/><path d="M1044 1000q-10 -65 5 -95m-5 95q15 -32 25 -65" fill="none" stroke="#202a1b" stroke-width="3" opacity=".8"/><path d="M1056 1000q-10 -107 5 -137m-5 137q15 -53 25 -107" fill="none" stroke="#202a1b" stroke-width="3" opacity=".8"/><path d="M1068 1000q-10 -74 5 -104m-5 104q15 -37 25 -74" fill="none" stroke="#202a1b" stroke-width="3" opacity=".8"/><path d="M1080 1000q-10 -36 5 -66m-5 66q15 -18 25 -36" fill="none" stroke="#202a1b" stroke-width="3" opacity=".8"/><path d="M1092 1000q-10 -97 5 -127m-5 127q15 -48 25 -97" fill="none" stroke="#202a1b" stroke-width="3" opacity=".8"/><path d="M1104 1000q-10 -52 5 -82m-5 82q15 -26 25 -52" fill="none" stroke="#202a1b" stroke-width="3" opacity=".8"/><path d="M1116 1000q-10 -40 5 -70m-5 70q15 -20 25 -40" fill="none" stroke="#202a1b" stroke-width="3" opacity=".8"/><path d="M1128 1000q-10 -58 5 -88m-5 88q15 -29 25 -58" fill="none" stroke="#202a1b" stroke-width="3" opacity=".8"/><path d="M1140 1000q-10 -55 5 -85m-5 85q15 -27 25 -55" fill="none" stroke="#202a1b" stroke-width="3" opacity=".8"/><path d="M1152 1000q-10 -90 5 -120m-5 120q15 -45 25 -90" fill="none" stroke="#202a1b" stroke-width="3" opacity=".8"/><path d="M1164 1000q-10 -105 5 -135m-5 135q15 -52 25 -105" fill="none" stroke="#202a1b" stroke-width="3" opacity=".8"/><path d="M1176 1000q-10 -99 5 -129m-5 129q15 -49 25 -99" fill="none" stroke="#202a1b" stroke-width="3" opacity=".8"/><path d="M1188 1000q-10 -40 5 -70m-5 70q15 -20 25 -40" fill="none" stroke="#202a1b" stroke-width="3" opacity=".8"/><path d="M1200 1000q-10 -100 5 -130m-5 130q15 -50 25 -100" fill="none" stroke="#202a1b" stroke-width="3" opacity=".8"/><path d="M1212 1000q-10 -105 5 -135m-5 135q15 -52 25 -105" fill="none" stroke="#202a1b" stroke-width="3" opacity=".8"/><path d="M1224 1000q-10 -98 5 -128m-5 128q15 -49 25 -98" fill="none" stroke="#202a1b" stroke-width="3" opacity=".8"/><path d="M1236 1000q-10 -113 5 -143m-5 143q15 -56 25 -113" fill="none" stroke="#202a1b" stroke-width="3" opacity=".8"/><path d="M1248 1000q-10 -104 5 -134m-5 134q15 -52 25 -104" fill="none" stroke="#202a1b" stroke-width="3" opacity=".8"/><path d="M1260 1000q-10 -85 5 -115m-5 115q15 -42 25 -85" fill="none" stroke="#202a1b" stroke-width="3" opacity=".8"/><path d="M1272 1000q-10 -69 5 -99m-5 99q15 -34 25 -69" fill="none" stroke="#202a1b" stroke-width="3" opacity=".8"/><path d="M1284 1000q-10 -97 5 -127m-5 127q15 -48 25 -97" fill="none" stroke="#202a1b" stroke-width="3" opacity=".8"/><path d="M1296 1000q-10 -112 5 -142m-5 142q15 -56 25 -112" fill="none" stroke="#202a1b" stroke-width="3" opacity=".8"/><path d="M1308 1000q-10 -112 5 -142m-5 142q15 -56 25 -112" fill="none" stroke="#202a1b" stroke-width="3" opacity=".8"/><path d="M1320 1000q-10 -99 5 -129m-5 129q15 -49 25 -99" fill="none" stroke="#202a1b" stroke-width="3" opacity=".8"/><path d="M1332 1000q-10 -38 5 -68m-5 68q15 -19 25 -38" fill="none" stroke="#202a1b" stroke-width="3" opacity=".8"/><path d="M1344 1000q-10 -58 5 -88m-5 88q15 -29 25 -58" fill="none" stroke="#202a1b" stroke-width="3" opacity=".8"/><path d="M1356 1000q-10 -47 5 -77m-5 77q15 -23 25 -47" fill="none" stroke="#202a1b" stroke-width="3" opacity=".8"/><path d="M1368 1000q-10 -42 5 -72m-5 72q15 -21 25 -42" fill="none" stroke="#202a1b" stroke-width="3" opacity=".8"/><path d="M1380 1000q-10 -92 5 -122m-5 122q15 -46 25 -92" fill="none" stroke="#202a1b" stroke-width="3" opacity=".8"/><path d="M1392 1000q-10 -37 5 -67m-5 67q15 -18 25 -37" fill="none" stroke="#202a1b" stroke-width="3" opacity=".8"/><path d="M1404 1000q-10 -111 5 -141m-5 141q15 -55 25 -111" fill="none" stroke="#202a1b" stroke-width="3" opacity=".8"/><path d="M1416 1000q-10 -36 5 -66m-5 66q15 -18 25 -36" fill="none" stroke="#202a1b" stroke-width="3" opacity=".8"/><path d="M1428 1000q-10 -107 5 -137m-5 137q15 -53 25 -107" fill="none" stroke="#202a1b" stroke-width="3" opacity=".8"/><path d="M1440 1000q-10 -77 5 -107m-5 107q15 -38 25 -77" fill="none" stroke="#202a1b" stroke-width="3" opacity=".8"/><path d="M1452 1000q-10 -88 5 -118m-5 118q15 -44 25 -88" fill="none" stroke="#202a1b" stroke-width="3" opacity=".8"/><path d="M1464 1000q-10 -77 5 -107m-5 107q15 -38 25 -77" fill="none" stroke="#202a1b" stroke-width="3" opacity=".8"/><path d="M1476 1000q-10 -103 5 -133m-5 133q15 -51 25 -103" fill="none" stroke="#202a1b" stroke-width="3" opacity=".8"/><path d="M1488 1000q-10 -93 5 -123m-5 123q15 -46 25 -93" fill="none" stroke="#202a1b" stroke-width="3" opacity=".8"/><path d="M1500 1000q-10 -34 5 -64m-5 64q15 -17 25 -34" fill="none" stroke="#202a1b" stroke-width="3" opacity=".8"/><path d="M1512 1000q-10 -106 5 -136m-5 136q15 -53 25 -106" fill="none" stroke="#202a1b" stroke-width="3" opacity=".8"/><path d="M1524 1000q-10 -108 5 -138m-5 138q15 -54 25 -108" fill="none" stroke="#202a1b" stroke-width="3" opacity=".8"/><path d="M1536 1000q-10 -82 5 -112m-5 112q15 -41 25 -82" fill="none" stroke="#202a1b" stroke-width="3" opacity=".8"/><path d="M1548 1000q-10 -105 5 -135m-5 135q15 -52 25 -105" fill="none" stroke="#202a1b" stroke-width="3" opacity=".8"/><path d="M1560 1000q-10 -40 5 -70m-5 70q15 -20 25 -40" fill="none" stroke="#202a1b" stroke-width="3" opacity=".8"/><path d="M1572 1000q-10 -34 5 -64m-5 64q15 -17 25 -34" fill="none" stroke="#202a1b" stroke-width="3" opacity=".8"/><path d="M1584 1000q-10 -53 5 -83m-5 83q15 -26 25 -53" fill="none" stroke="#202a1b" stroke-width="3" opacity=".8"/><path d="M1596 1000q-10 -38 5 -68m-5 68q15 -19 25 -38" fill="none" stroke="#202a1b" stroke-width="3" opacity=".8"/></svg>